<svg width="98" height="96" viewBox="0 0 98 96" fill="none" xmlns="http://www.w3.org/2000/svg">
<path d="M82.3181 48C82.3181 66.2166 67.4101 81 49.0004 81C30.5907 81 15.6826 66.2166 15.6826 48C15.6826 29.7834 30.5907 15 49.0004 15C67.4101 15 82.3181 29.7834 82.3181 48Z" stroke="#52AE30" stroke-width="2" stroke-linecap="round" stroke-linejoin="round"/>
<path opacity="0.5" d="M49.0006 10C43.8178 10 38.875 11.0185 34.3651 12.8644M10.6455 48C10.6455 35.6578 16.5846 24.6899 25.7857 17.7485" stroke="#52AE30" stroke-width="2" stroke-linecap="round" stroke-linejoin="round"/>
<path fill-rule="evenodd" clip-rule="evenodd" d="M85.3375 51C85.3375 69.2254 70.4248 84 52.0291 84C33.6334 84 18.7207 69.2254 18.7207 51C18.7207 32.7746 33.6334 18 52.0291 18C70.4248 18 85.3375 32.7746 85.3375 51ZM65.4191 39.5228C65.8266 39.146 65.8486 38.5132 65.4683 38.1094C65.0879 37.7057 64.4492 37.6839 64.0417 38.0607L42.6751 57.8182L36.0048 51.2096C35.6107 50.8191 34.9716 50.8191 34.5774 51.2096C34.1832 51.6002 34.1832 52.2333 34.5774 52.6239L41.9372 59.9155C42.3218 60.2966 42.942 60.3072 43.3396 59.9395L65.4191 39.5228Z" fill="#52AE30" fill-opacity="0.3"/>
<path d="M63.7205 37.793L41.6411 58.2096L34.2812 50.918" stroke="#52AE30" stroke-width="2" stroke-linecap="round" stroke-linejoin="round"/>
<path opacity="0.5" fill-rule="evenodd" clip-rule="evenodd" d="M80.7953 16C81.6314 16 82.3093 15.3284 82.3093 14.5C82.3093 13.6716 81.6314 13 80.7953 13C79.9591 13 79.2812 13.6716 79.2812 14.5C79.2812 15.3284 79.9591 16 80.7953 16Z" stroke="#52AE30"/>
<path opacity="0.5" fill-rule="evenodd" clip-rule="evenodd" d="M83.8236 78C84.6598 78 85.3376 77.3284 85.3376 76.5C85.3376 75.6716 84.6598 75 83.8236 75C82.9874 75 82.3096 75.6716 82.3096 76.5C82.3096 77.3284 82.9874 78 83.8236 78Z" fill="#52AE30"/>
<path opacity="0.5" d="M86.3467 24H89.3747" stroke="#52AE30" stroke-width="2" stroke-linecap="round"/>
<path opacity="0.5" d="M93.4121 24H96.4401" stroke="#52AE30" stroke-width="2" stroke-linecap="round"/>
<path opacity="0.5" d="M91.3931 26V29" stroke="#52AE30" stroke-width="2" stroke-linecap="round"/>
<path opacity="0.5" d="M91.3931 22V19" stroke="#52AE30" stroke-width="2" stroke-linecap="round"/>
<path opacity="0.5" d="M1.56152 77H6.60825" stroke="#52AE30" stroke-width="2" stroke-linecap="round"/>
<path opacity="0.5" d="M10.6455 77H15.6922" stroke="#52AE30" stroke-width="2" stroke-linecap="round"/>
<path opacity="0.5" d="M8.62653 79V84" stroke="#52AE30" stroke-width="2" stroke-linecap="round"/>
<path opacity="0.5" d="M8.62653 75V70" stroke="#52AE30" stroke-width="2" stroke-linecap="round"/>
</svg>
