<svg width="24" height="24" viewBox="0 0 24 24" fill="none" xmlns="http://www.w3.org/2000/svg"><path clip-rule="evenodd" d="M16.125 21.106c0 .774-.616 1.4-1.375 1.4H5.125c-.76 0-1.375-.626-1.375-1.4V8.502c0-.773.616-1.4 1.375-1.4h6.993c.365 0 .714.147.972.41l2.633 2.68c.257.263.402.62.402.99v9.924z" stroke="#52AE30" stroke-width="2" stroke-linecap="round" stroke-linejoin="round"/><path d="M7.875 7.102V2.9c0-.773.616-1.4 1.375-1.4h6.993c.365 0 .714.147.972.41l2.633 2.681c.257.263.402.619.402.99v9.924c0 .773-.616 1.4-1.375 1.4h-2.75" stroke="#52AE30" stroke-width="2" stroke-linecap="round" stroke-linejoin="round"/></svg>