<svg width="20" height="20" viewBox="0 0 20 20" fill="none" xmlns="http://www.w3.org/2000/svg">
<path fill-rule="evenodd" clip-rule="evenodd" d="M9.99747 5.00089C6.71292 4.95052 3.31591 7.03728 1.18026 9.17441C0.715956 9.64302 0.715956 10.3548 1.18026 10.8234C3.26947 12.9153 6.65669 15.0502 9.99747 14.9991C13.3383 15.0502 16.7263 12.9153 18.8171 10.8234C19.2814 10.3548 19.2814 9.64302 18.8171 9.17441C16.679 7.03728 13.282 4.95052 9.99747 5.00089Z" stroke="white" stroke-width="1.5" stroke-linecap="round" stroke-linejoin="round"/>
<path fill-rule="evenodd" clip-rule="evenodd" d="M12.5 10.0007C12.4996 11.3813 11.3802 12.5002 9.99956 12.5C8.61893 12.4998 7.49988 11.3804 7.5 9.99978C7.50012 8.61915 8.61937 7.5 10 7.5C10.6632 7.49982 11.2993 7.76325 11.7682 8.23227C12.2371 8.7013 12.5004 9.33746 12.5 10.0007V10.0007Z" stroke="white" stroke-width="1.5" stroke-linecap="round" stroke-linejoin="round"/>
</svg>
