<svg width="18" height="18" viewBox="0 0 18 18" fill="none" xmlns="http://www.w3.org/2000/svg">
<path d="M5.66675 12.3327L12.3334 5.66602" stroke="#BFBFBF" stroke-width="1.5" stroke-linecap="round" stroke-linejoin="round"/>
<path d="M6.22425 9.00484C5.3942 8.95701 4.58316 9.26557 3.9948 9.85303L2.52677 11.3211C1.78505 12.0628 1.49537 13.1439 1.76686 14.1571C2.03835 15.1703 2.82976 15.9617 3.84298 16.2332C4.8562 16.5047 5.93729 16.215 6.67902 15.4733L8.14705 14.0053C8.73451 13.4169 9.04307 12.6059 8.99524 11.7758" stroke="#BFBFBF" stroke-width="1.5" stroke-linecap="round" stroke-linejoin="round"/>
<path d="M11.7739 8.99453C12.6043 9.04227 13.4156 8.73372 14.0043 8.14633L15.4729 6.6783C16.215 5.93657 16.5048 4.85547 16.2332 3.84225C15.9616 2.82903 15.1698 2.03762 14.1562 1.76613C13.1425 1.49464 12.061 1.78431 11.3189 2.52604L9.85027 3.99408C9.26396 4.58314 8.95652 5.39401 9.00497 6.22353" stroke="#BFBFBF" stroke-width="1.5" stroke-linecap="round" stroke-linejoin="round"/>
</svg>
