<svg width="26" height="27" viewBox="0 0 26 27" fill="none" xmlns="http://www.w3.org/2000/svg"><path fill-rule="evenodd" clip-rule="evenodd" d="M7.041 13.223a5.959 5.959 0 1111.917-.002 5.959 5.959 0 01-11.917.002zM17.333 5.638a3.25 3.25 0 116.5 0 3.25 3.25 0 01-6.5 0z" fill="#52AE30"/><path fill-rule="evenodd" clip-rule="evenodd" d="M12.984.222v4.697a8.3 8.3 0 00-8.286 8.303 8.302 8.302 0 1016.604-.031l4.698.003c0 7.208-5.82 13.028-13 13.028s-13-5.82-13-13C0 6.047 5.813.23 12.984.222z" fill="#2A644A"/></svg>