<svg width="48" height="48" viewBox="0 0 48 48" fill="none" xmlns="http://www.w3.org/2000/svg">
<path d="M33.55 2.01001C34.51 2.01001 35.4201 2.40002 36.0901 3.08002L42.9501 10.1C43.6201 10.79 44.0001 11.72 44.0001 12.68V42.95C44.0101 44.63 42.65 46 40.97 46.01L7.03008 45.99C5.35008 45.98 3.99005 44.61 4.00005 42.93V5.06C3.99005 3.38 5.35008 2.01 7.03008 2H33.55V2.01001Z" stroke="#4DA32E" stroke-width="2" stroke-linecap="round" stroke-linejoin="round"/>
<path d="M32 2.01172V11.0117C32 12.6717 33.34 14.0117 35 14.0117H44" stroke="#4DA32E" stroke-width="2" stroke-linecap="round" stroke-linejoin="round"/>
<path d="M10.0289 32V21.568H12.9729C13.7729 21.568 14.4929 21.6693 15.1329 21.872C15.7729 22.0747 16.3222 22.3893 16.7809 22.816C17.2395 23.232 17.5915 23.7653 17.8369 24.416C18.0822 25.0667 18.2049 25.84 18.2049 26.736C18.2049 27.632 18.0822 28.4107 17.8369 29.072C17.5915 29.7333 17.2449 30.2827 16.7969 30.72C16.3489 31.1467 15.8102 31.4667 15.1809 31.68C14.5622 31.8933 13.8689 32 13.1009 32H10.0289ZM12.3809 30.096H12.8289C13.2769 30.096 13.6822 30.0373 14.0449 29.92C14.4075 29.8027 14.7169 29.616 14.9729 29.36C15.2289 29.0933 15.4262 28.7467 15.5649 28.32C15.7142 27.8933 15.7889 27.3653 15.7889 26.736C15.7889 26.1173 15.7142 25.6 15.5649 25.184C15.4262 24.7573 15.2289 24.4213 14.9729 24.176C14.7169 23.92 14.4075 23.7387 14.0449 23.632C13.6822 23.5253 13.2769 23.472 12.8289 23.472H12.3809V30.096ZM24.4251 32.192C23.7211 32.192 23.0758 32.0693 22.4891 31.824C21.9131 31.568 21.4171 31.2053 21.0011 30.736C20.5851 30.2667 20.2598 29.696 20.0251 29.024C19.8011 28.352 19.6891 27.5893 19.6891 26.736C19.6891 25.8827 19.8011 25.1253 20.0251 24.464C20.2598 23.792 20.5851 23.232 21.0011 22.784C21.4171 22.3253 21.9131 21.9787 22.4891 21.744C23.0758 21.4987 23.7211 21.376 24.4251 21.376C25.1291 21.376 25.7691 21.4987 26.3451 21.744C26.9318 21.9787 27.4331 22.3253 27.8491 22.784C28.2651 23.2427 28.5851 23.808 28.8091 24.48C29.0438 25.1413 29.1611 25.8933 29.1611 26.736C29.1611 27.5893 29.0438 28.352 28.8091 29.024C28.5851 29.696 28.2651 30.2667 27.8491 30.736C27.4331 31.2053 26.9318 31.568 26.3451 31.824C25.7691 32.0693 25.1291 32.192 24.4251 32.192ZM24.4251 30.16C25.1398 30.16 25.7051 29.856 26.1211 29.248C26.5371 28.6293 26.7451 27.792 26.7451 26.736C26.7451 25.6907 26.5371 24.8747 26.1211 24.288C25.7051 23.7013 25.1398 23.408 24.4251 23.408C23.7105 23.408 23.1451 23.7013 22.7291 24.288C22.3131 24.8747 22.1051 25.6907 22.1051 26.736C22.1051 27.792 22.3131 28.6293 22.7291 29.248C23.1451 29.856 23.7105 30.16 24.4251 30.16ZM35.4746 32.192C34.8133 32.192 34.1893 32.08 33.6026 31.856C33.016 31.6213 32.4986 31.28 32.0506 30.832C31.6133 30.384 31.2666 29.8293 31.0106 29.168C30.7546 28.496 30.6266 27.7227 30.6266 26.848C30.6266 25.984 30.76 25.216 31.0266 24.544C31.2933 23.8613 31.6506 23.2853 32.0986 22.816C32.5466 22.3467 33.0693 21.9893 33.6666 21.744C34.264 21.4987 34.8933 21.376 35.5546 21.376C36.2266 21.376 36.8293 21.5147 37.3626 21.792C37.896 22.0587 38.3386 22.3733 38.6906 22.736L37.4426 24.24C37.176 23.9947 36.8933 23.7973 36.5946 23.648C36.3066 23.488 35.976 23.408 35.6026 23.408C35.2506 23.408 34.9146 23.488 34.5946 23.648C34.2853 23.7973 34.0133 24.016 33.7786 24.304C33.5546 24.592 33.3733 24.944 33.2346 25.36C33.1066 25.776 33.0426 26.2453 33.0426 26.768C33.0426 27.8453 33.272 28.6827 33.7306 29.28C34.1893 29.8667 34.8026 30.16 35.5706 30.16C35.9973 30.16 36.376 30.0693 36.7066 29.888C37.048 29.696 37.3466 29.4613 37.6026 29.184L38.8506 30.656C37.976 31.68 36.8506 32.192 35.4746 32.192Z" fill="#4DA32E"/>
</svg>
