<svg width="48" height="48" viewBox="0 0 48 48" fill="none" xmlns="http://www.w3.org/2000/svg">
<path d="M33.55 2.01001C34.51 2.01001 35.4201 2.40002 36.0901 3.08002L42.9501 10.1C43.6201 10.79 44.0001 11.72 44.0001 12.68V42.95C44.0101 44.63 42.65 46 40.97 46.01L7.03008 45.99C5.35008 45.98 3.99005 44.61 4.00005 42.93V5.06C3.99005 3.38 5.35008 2.01 7.03008 2H33.55V2.01001Z" stroke="#4DA32E" stroke-width="2" stroke-linecap="round" stroke-linejoin="round"/>
<path d="M32 2.01172V11.0117C32 12.6717 33.34 14.0117 35 14.0117H44" stroke="#4DA32E" stroke-width="2" stroke-linecap="round" stroke-linejoin="round"/>
<path d="M11.1929 32V21.568H14.7769C15.3529 21.568 15.8916 21.6267 16.3929 21.744C16.8943 21.8507 17.3316 22.0373 17.7049 22.304C18.0783 22.56 18.3716 22.9067 18.5849 23.344C18.8089 23.7707 18.9209 24.2987 18.9209 24.928C18.9209 25.536 18.8089 26.064 18.5849 26.512C18.3716 26.96 18.0783 27.328 17.7049 27.616C17.3316 27.904 16.8996 28.1173 16.4089 28.256C15.9183 28.3947 15.3956 28.464 14.8409 28.464H13.5449V32H11.1929ZM13.5449 26.592H14.6969C15.9769 26.592 16.6169 26.0373 16.6169 24.928C16.6169 24.384 16.4463 24 16.1049 23.776C15.7636 23.552 15.2729 23.44 14.6329 23.44H13.5449V26.592ZM20.7242 32V21.568H23.6682C24.4682 21.568 25.1882 21.6693 25.8282 21.872C26.4682 22.0747 27.0175 22.3893 27.4762 22.816C27.9349 23.232 28.2869 23.7653 28.5322 24.416C28.7775 25.0667 28.9002 25.84 28.9002 26.736C28.9002 27.632 28.7775 28.4107 28.5322 29.072C28.2869 29.7333 27.9402 30.2827 27.4922 30.72C27.0442 31.1467 26.5055 31.4667 25.8762 31.68C25.2575 31.8933 24.5642 32 23.7962 32H20.7242ZM23.0762 30.096H23.5242C23.9722 30.096 24.3775 30.0373 24.7402 29.92C25.1029 29.8027 25.4122 29.616 25.6682 29.36C25.9242 29.0933 26.1215 28.7467 26.2602 28.32C26.4095 27.8933 26.4842 27.3653 26.4842 26.736C26.4842 26.1173 26.4095 25.6 26.2602 25.184C26.1215 24.7573 25.9242 24.4213 25.6682 24.176C25.4122 23.92 25.1029 23.7387 24.7402 23.632C24.3775 23.5253 23.9722 23.472 23.5242 23.472H23.0762V30.096ZM30.8804 32V21.568H37.4564V23.552H33.2324V25.968H36.8484V27.952H33.2324V32H30.8804Z" fill="#4DA32E"/>
</svg>
